<svg width="891" height="886" viewBox="0 0 891 886" fill="none" xmlns="http://www.w3.org/2000/svg">
<path d="M216.292 289.488H341.083V116.249H564.238C649.389 120.653 713.987 154.42 713.987 233.699C713.987 297.122 661.134 336.468 634.708 348.213V489.153C702.242 495.025 766.839 555.219 768.307 638.902C769.482 705.848 689.518 748.033 649.389 760.756H335.21V588.985H216.292V881.143H649.389C734.54 876.738 888.694 816.545 890.162 630.093C891.336 480.931 798.649 431.896 752.158 426.023V404.001C782.989 396.171 842.301 345.57 832.905 205.804C823.509 66.0387 696.858 14.4585 634.708 6.13911L216.292 0.266602V289.488Z" fill="white"/>
<path d="M120.863 0.266602H0.477051V885.547L120.863 801.864V497.961H427.702V663.86H548.088V226.358L435.043 164.697V376.107H120.863V0.266602Z" fill="white"/>
</svg>
