<svg width="449" height="580" viewBox="0 0 449 580" fill="none" xmlns="http://www.w3.org/2000/svg">
<path d="M381.951 131.878C387.388 44.3621 457.944 50.8695 448.05 -4.15059e-08L-12 -2.01509e-05L-12 580C-6.75341 550.302 16.063 489.317 65.3509 482.966C126.961 475.027 118.096 375.786 157.547 290.662C191.275 217.886 374.306 254.935 381.951 131.878Z" fill="#0B609F"/>
<path d="M364.751 112.097C369.798 37.7078 435.304 43.239 426.118 -3.85348e-08L-0.999969 -1.87085e-05L-0.999991 493C3.87101 467.756 25.0542 415.92 70.8138 410.521C128.013 403.773 119.783 319.418 156.41 247.062C187.724 185.203 357.653 216.695 364.751 112.097Z" fill="#3DAAFC"/>
</svg>
